<svg xmlns="http://www.w3.org/2000/svg"  viewBox="0 0 32 32" width="32px" height="32px"><path d="M 7 10 C 6.0833335 10 5.268559 10.379756 4.7519531 10.960938 C 4.2353472 11.542118 4 12.277778 4 13 C 4 13.598395 4.2736555 14.168046 4.6230469 14.689453 C 3.0871021 15.545377 2 17.126301 2 19 L 4 19 C 4 17.331516 5.3315161 16 7 16 C 8.5899999 16 9.8592854 17.213792 9.9765625 18.771484 C 8.752666 20.174345 8 21.997858 8 24 L 10 24 C 10 20.674438 12.674438 18 16 18 C 19.325562 18 22 20.674438 22 24 L 24 24 C 24 21.997858 23.247334 20.174345 22.023438 18.771484 C 22.140715 17.213792 23.41 16 25 16 C 26.668484 16 28 17.331516 28 19 L 30 19 C 30 17.162338 28.98378 15.56618 27.496094 14.697266 C 27.833941 14.18153 28 13.588902 28 13 C 28 12.277778 27.764653 11.542119 27.248047 10.960938 C 26.731441 10.379755 25.916666 10 25 10 C 24.083334 10 23.268559 10.379756 22.751953 10.960938 C 22.235347 11.542118 22 12.277778 22 13 C 22 13.588902 22.166059 14.18153 22.503906 14.697266 C 21.500772 15.283168 20.722526 16.196982 20.318359 17.300781 C 19.918789 17.042655 19.504314 16.806116 19.060547 16.621094 C 19.687203 15.867229 20 14.932322 20 14 C 20 13.027778 19.681319 12.042119 18.998047 11.273438 C 18.314774 10.504755 17.25 10 16 10 C 14.75 10 13.685226 10.504756 13.001953 11.273438 C 12.318681 12.042118 12 13.027778 12 14 C 12 14.932322 12.312797 15.867229 12.939453 16.621094 C 12.492994 16.807239 12.075526 17.044575 11.673828 17.304688 C 11.244466 16.190826 10.419506 15.270428 9.3769531 14.689453 C 9.7263445 14.168046 10 13.598395 10 13 C 10 12.277778 9.7646528 11.542119 9.2480469 10.960938 C 8.731441 10.379755 7.9166665 10 7 10 z M 7 12 C 7.4166663 12 7.6018927 12.120244 7.7519531 12.289062 C 7.9020136 12.457882 8 12.722222 8 13 C 8 13.277778 7.9020136 13.542119 7.7519531 13.710938 C 7.6018927 13.879755 7.4166663 14 7 14 C 6.5833337 14 6.3981073 13.879756 6.2480469 13.710938 C 6.0979864 13.542118 6 13.277778 6 13 C 6 12.722222 6.0979864 12.457881 6.2480469 12.289062 C 6.3981073 12.120245 6.5833337 12 7 12 z M 16 12 C 16.749999 12 17.185226 12.245244 17.501953 12.601562 C 17.81868 12.957882 18 13.472222 18 14 C 18 14.527778 17.81868 15.042119 17.501953 15.398438 C 17.185226 15.754755 16.749999 16 16 16 C 15.250001 16 14.814774 15.754756 14.498047 15.398438 C 14.18132 15.042118 14 14.527778 14 14 C 14 13.472222 14.18132 12.957881 14.498047 12.601562 C 14.814774 12.245245 15.250001 12 16 12 z M 25 12 C 25.416666 12 25.601893 12.120244 25.751953 12.289062 C 25.902014 12.457882 26 12.722222 26 13 C 26 13.277778 25.90201 13.542119 25.751953 13.710938 C 25.601893 13.879755 25.416666 14 25 14 C 24.583334 14 24.398107 13.879756 24.248047 13.710938 C 24.097986 13.542118 24 13.277778 24 13 C 24 12.722222 24.097986 12.457881 24.248047 12.289062 C 24.398107 12.120245 24.583334 12 25 12 z"/></svg>